<svg width="23" height="23" viewBox="0 0 23 23" fill="none" xmlns="http://www.w3.org/2000/svg">
<path d="M12.5065 14.1142L14.8458 16.3195C14.4884 16.962 14.4516 17.601 14.8273 17.9552L19.0969 21.9803C19.6347 22.4873 20.8062 22.2095 21.705 21.3586C22.6075 20.5078 22.9022 19.4069 22.3644 18.8998L18.0986 14.8748C17.7191 14.5205 17.0413 14.5553 16.3598 14.8887L14.0206 12.6869L12.5065 14.1142ZM8.01597 0.896484C3.58803 0.896484 0 4.27906 0 8.45344C0 12.6278 3.58803 16.0104 8.01597 16.0104C12.4439 16.0104 16.0319 12.6278 16.0319 8.45344C16.0319 4.27906 12.4439 0.896484 8.01597 0.896484ZM8.01597 14.2323C4.63055 14.2323 1.88611 11.645 1.88611 8.45344C1.88611 5.26188 4.63055 2.67459 8.01597 2.67459C11.4014 2.67459 14.1458 5.26188 14.1458 8.45344C14.1458 11.645 11.4014 14.2323 8.01597 14.2323Z" fill="#6D6D6D"/>
</svg>
