<svg width="107" height="21" viewBox="0 0 107 21" fill="none" xmlns="http://www.w3.org/2000/svg">
<path d="M5.524 4.18V8.156H11.936V11.852H5.524V16.164H12.776V20H0.736V0.343999H12.776V4.18H5.524ZM27.9244 8.184V12.16H15.6044V8.184H27.9244ZM39.2386 20.196C37.8013 20.196 36.5133 19.9627 35.3746 19.496C34.236 19.0293 33.3213 18.3387 32.6306 17.424C31.9586 16.5093 31.604 15.408 31.5666 14.12H36.6626C36.7373 14.848 36.9893 15.408 37.4186 15.8C37.848 16.1733 38.408 16.36 39.0986 16.36C39.808 16.36 40.368 16.2013 40.7786 15.884C41.1893 15.548 41.3946 15.0907 41.3946 14.512C41.3946 14.0267 41.2266 13.6253 40.8906 13.308C40.5733 12.9907 40.172 12.7293 39.6866 12.524C39.22 12.3187 38.548 12.0853 37.6706 11.824C36.4013 11.432 35.3653 11.04 34.5626 10.648C33.76 10.256 33.0693 9.67733 32.4906 8.912C31.912 8.14667 31.6226 7.148 31.6226 5.916C31.6226 4.08667 32.2853 2.65867 33.6106 1.632C34.936 0.586666 36.6626 0.0639997 38.7906 0.0639997C40.956 0.0639997 42.7013 0.586666 44.0266 1.632C45.352 2.65867 46.0613 4.096 46.1546 5.944H40.9746C40.9373 5.30933 40.704 4.81467 40.2746 4.46C39.8453 4.08667 39.2946 3.9 38.6226 3.9C38.044 3.9 37.5773 4.05867 37.2226 4.376C36.868 4.67467 36.6906 5.11333 36.6906 5.692C36.6906 6.32667 36.9893 6.82133 37.5866 7.176C38.184 7.53067 39.1173 7.91333 40.3866 8.324C41.656 8.75333 42.6826 9.164 43.4666 9.556C44.2693 9.948 44.96 10.5173 45.5386 11.264C46.1173 12.0107 46.4066 12.972 46.4066 14.148C46.4066 15.268 46.1173 16.2853 45.5386 17.2C44.9786 18.1147 44.1573 18.8427 43.0746 19.384C41.992 19.9253 40.7133 20.196 39.2386 20.196ZM66.3772 0.343999V20H61.5892V11.908H54.1412V20H49.3532V0.343999H54.1412V8.044H61.5892V0.343999H66.3772ZM79.1297 20.196C77.2817 20.196 75.583 19.7667 74.0337 18.908C72.503 18.0493 71.2803 16.8547 70.3657 15.324C69.4697 13.7747 69.0217 12.0387 69.0217 10.116C69.0217 8.19333 69.4697 6.46667 70.3657 4.936C71.2803 3.40533 72.503 2.21067 74.0337 1.352C75.583 0.493333 77.2817 0.0639997 79.1297 0.0639997C80.9777 0.0639997 82.667 0.493333 84.1977 1.352C85.747 2.21067 86.9603 3.40533 87.8377 4.936C88.7337 6.46667 89.1817 8.19333 89.1817 10.116C89.1817 12.0387 88.7337 13.7747 87.8377 15.324C86.9417 16.8547 85.7283 18.0493 84.1977 18.908C82.667 19.7667 80.9777 20.196 79.1297 20.196ZM79.1297 15.828C80.6977 15.828 81.9483 15.3053 82.8817 14.26C83.8337 13.2147 84.3097 11.8333 84.3097 10.116C84.3097 8.38 83.8337 6.99867 82.8817 5.972C81.9483 4.92667 80.6977 4.404 79.1297 4.404C77.543 4.404 76.2737 4.91733 75.3217 5.944C74.3883 6.97067 73.9217 8.36133 73.9217 10.116C73.9217 11.852 74.3883 13.2427 75.3217 14.288C76.2737 15.3147 77.543 15.828 79.1297 15.828ZM106.825 6.672C106.825 7.81067 106.564 8.856 106.041 9.808C105.519 10.7413 104.716 11.4973 103.633 12.076C102.551 12.6547 101.207 12.944 99.6014 12.944H96.6334V20H91.8454V0.343999H99.6014C101.169 0.343999 102.495 0.614666 103.577 1.156C104.66 1.69733 105.472 2.444 106.013 3.396C106.555 4.348 106.825 5.44 106.825 6.672ZM99.2374 9.136C100.152 9.136 100.833 8.92133 101.281 8.492C101.729 8.06267 101.953 7.456 101.953 6.672C101.953 5.888 101.729 5.28133 101.281 4.852C100.833 4.42267 100.152 4.208 99.2374 4.208H96.6334V9.136H99.2374Z" fill="#A51910"/>
</svg>
